<svg width="144" height="64" viewBox="0 0 144 64" fill="none" xmlns="http://www.w3.org/2000/svg">
<path d="M140.33 23.4233C145.131 28.2408 145.17 36.0984 139.855 40.3418C131.956 46.6474 123.202 51.8282 113.839 55.7192C100.684 61.1862 86.5852 64 72.3465 64C58.1079 64 44.0086 61.1862 30.8538 55.7193C21.491 51.8282 12.7372 46.6474 4.83831 40.3418C-0.477333 36.0984 -0.438015 28.2408 4.36354 23.4233L23.2625 4.4618C28.0865 -0.378233 35.8753 -0.239323 41.6281 3.44879C44.4418 5.25263 47.4146 6.80944 50.5142 8.0976C57.4359 10.9742 64.8545 12.4547 72.3465 12.4547C79.8385 12.4547 87.2571 10.9742 94.1788 8.0976C97.2785 6.80944 100.251 5.25263 103.065 3.44879C108.818 -0.239325 116.607 -0.378238 121.431 4.46179L140.33 23.4233Z" fill="white"/>
</svg>
