<svg width="63" height="144" viewBox="0 0 63 144" fill="none" xmlns="http://www.w3.org/2000/svg">
<path d="M22.9851 4.13034C27.8262 -0.814422 35.8485 -0.850131 40.0811 4.62454C46.1446 12.4675 51.1336 21.1427 54.8929 30.4129C60.2452 43.6113 63 57.7572 63 72.0431C63 86.3289 60.2452 100.475 54.8929 113.673C51.1336 122.943 46.1446 131.619 40.0811 139.462C35.8485 144.936 27.8261 144.901 22.9851 139.956L4.57694 121.153C-0.12116 116.355 0.0163588 108.731 3.60009 103.052C5.41654 100.173 6.98072 97.1269 8.27 93.9477C11.0862 87.003 12.5357 79.5598 12.5357 72.0431C12.5357 64.5263 11.0862 57.0831 8.27001 50.1385C6.98072 46.9592 5.41655 43.9129 3.6001 41.0342C0.0163687 35.3546 -0.121143 27.7316 4.57696 22.9328L22.9851 4.13034Z" fill="white"/>
</svg>
