<svg width="144" height="64" viewBox="0 0 144 64" fill="none" xmlns="http://www.w3.org/2000/svg">
<path d="M4.36354 40.5767C-0.438015 35.7592 -0.477332 27.9016 4.83831 23.6582C12.7372 17.3526 21.491 12.1718 30.8538 8.28074C44.0086 2.8138 58.1079 -2.95191e-06 72.3465 0C86.5852 2.95191e-06 100.684 2.81381 113.839 8.28076C123.202 12.1718 131.956 17.3526 139.855 23.6582C145.17 27.9016 145.131 35.7592 140.33 40.5767L121.431 59.5382C116.607 64.3782 108.818 64.2393 103.065 60.5512C100.251 58.7474 97.2785 57.1906 94.1788 55.9024C87.2572 53.0258 79.8385 51.5453 72.3465 51.5453C64.8546 51.5453 57.4359 53.0258 50.5142 55.9024C47.4146 57.1906 44.4418 58.7474 41.6281 60.5512C35.8753 64.2393 28.0865 64.3782 23.2625 59.5382L4.36354 40.5767Z" fill="white"/>
</svg>
